PathFileType	3	(X/Y/Z)	E:\ViconData\BIOM9541 2025\Week 7\Wed1100\Hanif high squat 7-5 Squat 01.trc
DataRate	CameraRate	NumFrames	NumMarkers	Units	OrigDataRate	OrigDataStartFrame	OrigNumFrames
200.0	200.0	20	19	mm	200.0	1318	1756	
Frame#	Time	C7			CLAV			RBAK			LASI			RASI			LPSI			RPSI			LTHI			LKNE			LTIB			LANK			LHEE			LTOE			RTHI			RKNE			RTIB			RANK			RHEE			RTOE			
		X1	Y1	Z1	X2	Y2	Z2	X3	Y3	Z3	X4	Y4	Z4	X5	Y5	Z5	X6	Y6	Z6	X7	Y7	Z7	X8	Y8	Z8	X9	Y9	Z9	X10	Y10	Z10	X11	Y11	Z11	X12	Y12	Z12	X13	Y13	Z13	X14	Y14	Z14	X15	Y15	Z15	X16	Y16	Z16	X17	Y17	Z17	X18	Y18	Z18	X19	Y19	Z19	
1318	6.585	317.21735	1214.0674	-1218.8613	172.7476	1140.0162	-1205.7146	333.92764	1133.2422	-1370.0358	230.47676	773.54675	-1089.8917	223.1941	786.5236	-1348.573	398.8082	834.1066	-1175.8436	398.3896	832.0111	-1250.0443	178.54565	520.78577	-947.00836	132.18428	389.29434	-927.1875	229.33452	203.54921	-936.94269	298.47739	64.753525	-975.09656	321.29013	50.853153	-1035.2406	159.91179	38.618622	-949.34131	254.83984	663.77118	-1432.167	142.97597	383.24457	-1493.4718	175.74976	301.27072	-1497.1466	293.10031	71.801956	-1434.9915	319.97757	51.886658	-1365.7944	161.58478	40.345329	-1462.5898	
1319	6.59	317.11075	1210.9435	-1218.7322	172.71384	1136.7366	-1205.572	333.92798	1130.114	-1370.0061	231.38622	770.16846	-1089.9034	223.842	783.4763	-1348.6018	399.5775	831.0245	-1175.9893	398.9446	829.1662	-1249.8082	178.24054	519.54388	-946.42175	130.83998	388.51633	-926.06104	228.59344	203.04605	-936.42871	298.40091	64.734154	-975.09998	321.74313	51.41655	-1035.6083	159.91826	38.629372	-949.27875	255.31488	661.68555	-1432.337	141.36166	382.24417	-1494.4738	174.41344	300.5011	-1498.0088	292.91971	71.796524	-1435.0327	319.89481	51.908405	-1365.8016	161.58197	40.389832	-1462.6366	
1320	6.595	316.99057	1207.7852	-1218.6467	172.68768	1133.4506	-1205.5835	333.92422	1126.941	-1369.8583	232.29289	766.90204	-1090.0544	224.6144	780.3866	-1348.5636	400.3831	827.9853	-1175.9083	399.8291	825.8825	-1250.1161	177.90927	518.23383	-945.83386	129.52361	387.69061	-924.91089	227.96478	202.64571	-936.01154	298.30011	64.740242	-975.05945	321.69406	51.474716	-1035.6162	159.91307	38.636883	-949.203	255.7309	659.61536	-1432.5037	139.7905	381.32324	-1495.5176	173.05069	299.74902	-1498.803	293.03424	72.009293	-1435.2205	319.57422	51.711124	-1365.6173	161.59979	40.47731	-1462.6724	
1321	6.6	316.92136	1204.5991	-1218.6146	172.6412	1130.1012	-1205.4008	333.97845	1123.7957	-1369.7997	233.21439	763.47809	-1090.1919	225.3489	777.1844	-1348.5856	401.1427	824.8992	-1175.8003	400.4685	822.8344	-1250.0438	177.54918	516.8952	-945.22253	128.16916	386.84583	-923.89435	227.22771	202.12729	-935.55151	298.21957	64.702599	-975.03583	321.64136	51.446934	-1035.611	159.93298	38.6567	-949.16022	256.2323	657.47723	-1432.6962	138.23166	380.30392	-1496.4298	171.739	298.92841	-1499.5339	292.9227	72.012611	-1435.2258	319.48148	51.770679	-1365.5043	161.64635	40.564045	-1462.7539	
1322	6.605	316.89255	1201.3289	-1218.5842	172.66493	1126.6775	-1205.4471	333.95599	1120.5374	-1369.6881	233.97981	760.1701	-1090.1624	226.1342	774.0616	-1348.6812	401.9048	821.8601	-1175.9097	401.3679	819.695	-1250.2664	177.15781	515.7865	-944.53436	126.85859	386.00168	-922.87079	226.53485	201.77853	-934.99231	298.16632	64.661736	-975.02795	321.61765	51.479832	-1035.6207	159.998	38.664135	-949.18799	256.71005	655.31903	-1432.9041	136.78461	379.2645	-1497.4532	170.45184	298.04355	-1500.2681	292.83865	71.967438	-1435.2205	319.41586	51.843578	-1365.4725	161.72948	40.533791	-1462.7574	
1323	6.61	316.91449	1198.2015	-1218.6139	172.69986	1123.1781	-1205.4019	333.96707	1117.2871	-1369.6198	234.82652	756.79443	-1090.2085	226.8613	770.7573	-1348.6354	402.7103	818.6805	-1176.0635	402.1216	816.5946	-1250.2828	176.76463	514.53918	-943.91003	125.49136	385.23462	-921.68225	225.83311	201.28023	-934.52527	298.13242	64.627106	-975.05463	321.5896	51.494926	-1035.6384	160.00285	38.642189	-949.15369	257.24557	652.98071	-1433.083	135.30466	378.21497	-1498.4685	169.22749	297.13773	-1501.0446	292.75583	71.891006	-1435.1948	319.306	51.807892	-1365.451	161.81361	40.504013	-1462.8008	
1324	6.615	316.76379	1194.8798	-1218.4576	172.71242	1119.7318	-1205.3521	334.01349	1114.064	-1369.5509	235.57663	753.4574	-1090.1421	227.6366	767.4832	-1348.6493	403.4509	815.4617	-1176.0641	402.5844	813.5734	-1249.9489	176.3241	513.224	-943.26282	124.21581	384.32297	-920.65295	225.19357	200.91597	-934.08392	298.06265	64.622475	-975.04395	321.51376	51.499371	-1035.6705	160.49879	38.523918	-948.96716	257.72443	650.70892	-1433.302	133.81947	377.08493	-1499.3737	167.9662	296.2417	-1501.7893	292.63208	71.849854	-1435.1614	319.1821	51.858517	-1365.4089	161.8396	40.490826	-1462.8024	
1325	6.62	316.57181	1191.4917	-1218.3152	172.65306	1116.3269	-1205.3298	334.07635	1110.8076	-1369.5524	236.43295	750.09546	-1090.1947	228.339	764.1915	-1348.6042	404.1532	812.31	-1176.1127	403.4918	810.1697	-1250.281	175.88266	512.05859	-942.58032	122.95188	383.55066	-919.59772	224.49007	200.45332	-933.54596	297.96185	64.632378	-975.03143	321.40549	51.554024	-1035.6963	160.46486	38.531364	-948.91724	258.21017	648.48615	-1433.4854	132.34648	376.06198	-1500.3087	166.69508	295.39365	-1502.4899	292.28336	71.674713	-1435.0251	319.13474	51.672306	-1364.9219	161.83264	40.501064	-1462.8082	
1326	6.625	316.48132	1188.1747	-1218.2428	171.99307	1113.3439	-1204.7195	334.01187	1107.5771	-1369.4318	237.16803	746.60052	-1090.2496	228.7726	761.3516	-1349.3025	404.8314	809.147	-1175.9348	404.1367	806.8665	-1250.2715	175.44469	510.81943	-941.98755	121.68256	382.65186	-918.50952	223.76962	199.90161	-933.10028	297.82031	64.611923	-975.00366	321.32358	51.558414	-1035.734	160.48578	38.454243	-948.93225	258.70981	646.21143	-1433.683	130.91414	375.08795	-1501.2869	165.45087	294.60437	-1503.1588	292.33826	71.882942	-1435.0979	318.7951	51.691387	-1365.0092	161.80017	40.594711	-1462.8761	
1327	6.63	316.479	1184.959	-1218.1868	172.06363	1109.7513	-1208.8589	334.02609	1104.2642	-1369.4847	237.94389	743.28137	-1090.2047	229.7435	757.7816	-1348.8744	405.5243	805.9457	-1176.0231	404.8615	803.5913	-1250.3735	175.01414	509.5368	-941.42206	120.4238	381.84857	-917.31091	223.14021	199.43886	-932.67041	297.71182	64.579018	-975.06079	321.25024	51.631313	-1035.8185	160.00951	38.989525	-948.84509	259.23166	643.94458	-1433.8701	129.50011	374.02625	-1502.1555	164.31036	293.75223	-1503.927	292.03345	71.654129	-1434.9264	318.94656	51.80098	-1364.6754	161.82855	40.605125	-1462.8861	
1328	6.635	316.44775	1181.5857	-1218.1863	171.60896	1106.5565	-1208.8401	334.03592	1100.9092	-1369.3899	238.69485	739.86041	-1090.2704	230.4217	754.3956	-1348.8773	406.2544	802.6262	-1176.328	405.6521	800.6186	-1250.3595	174.60167	508.30411	-940.83698	119.20516	380.96542	-916.26526	222.45425	199.03973	-932.15106	297.68661	64.573433	-975.13049	321.1889	51.636936	-1035.9006	160.05948	38.793072	-948.91071	259.75021	641.6297	-1434.0212	128.16112	372.8877	-1503.0399	163.15317	292.83362	-1504.5795	291.92175	71.502457	-1434.8646	318.88318	51.793911	-1364.655	161.88478	40.522503	-1462.912	
1329	6.64	316.3956	1178.203	-1218.1147	171.9817	1102.6902	-1209.0391	334.03735	1097.5065	-1369.3916	239.3851	736.53003	-1090.2893	231.1616	751.0059	-1348.8767	406.9907	799.3488	-1176.519	406.305	797.5107	-1250.2554	174.23901	507.07269	-940.25061	118.04501	380.18066	-915.12354	221.89786	198.6683	-931.71082	297.89084	64.800224	-975.02557	321.21628	51.866684	-1036.1172	159.96172	38.651661	-949.02997	260.2803	639.19312	-1434.2494	126.82295	371.7594	-1503.8903	162.08391	291.8952	-1505.2106	292.12299	71.581406	-1434.9885	318.56662	51.434021	-1365.3806	161.93639	40.46003	-1462.8767	
1330	6.645	316.40152	1174.8063	-1218.1063	167.8578	1101.3944	-1199.1915	334.04642	1094.1302	-1369.4163	239.96236	733.16522	-1090.1909	231.8455	747.7337	-1348.9291	407.6106	796.124	-1176.3911	407.122	793.9949	-1250.5433	173.9521	505.7919	-939.6181	116.97013	379.30374	-914.00525	221.31409	198.09813	-931.34344	297.61151	64.551376	-975.23499	321.08725	51.750061	-1036.0643	159.95181	38.753708	-948.91333	260.83472	636.85895	-1434.3263	125.46033	370.69186	-1504.6938	160.9193	291.05325	-1505.8177	291.73972	71.373756	-1434.7275	318.7225	51.824383	-1364.4209	161.94547	40.473228	-1462.8739	
1331	6.65	316.37509	1171.4806	-1218.0707	171.48624	1095.8816	-1208.4849	334.04282	1090.7633	-1369.322	240.68385	729.68848	-1090.2538	232.6034	744.4109	-1348.942	408.206	792.9222	-1176.171	407.4753	790.7955	-1250.1334	173.64546	504.3887	-939.00403	115.89889	378.34827	-912.97546	220.75359	197.61349	-930.85449	297.47354	64.526009	-975.22223	320.98398	51.838921	-1036.0648	159.92584	38.782028	-948.88	261.34805	634.53876	-1434.4829	124.18562	369.78418	-1505.5806	159.81503	290.33493	-1506.5129	291.6441	71.448616	-1434.6803	318.56424	51.905148	-1364.158	161.93805	40.551094	-1462.8323	
1332	6.655	316.38205	1168.1141	-1218.0671	171.60402	1092.8807	-1204.1532	334.10037	1087.4149	-1369.4464	241.29482	726.23053	-1090.2467	233.2817	741.1041	-1348.9955	408.7993	789.6934	-1175.9469	407.9564	787.4335	-1249.9404	173.37183	502.87604	-938.44446	114.78706	377.39142	-911.81238	220.29395	197.18764	-930.42212	297.39377	64.448044	-975.22882	320.90881	51.912033	-1036.0856	159.87564	38.754986	-948.82495	261.84769	632.18646	-1434.5676	122.86717	368.75427	-1506.3835	158.69461	289.49377	-1507.1599	291.52045	71.464264	-1434.6278	318.43112	51.96019	-1363.9496	161.94629	40.612457	-1462.8513	
1333	6.66	316.3826	1164.7079	-1218.0363	172.12769	1088.9279	-1209.1511	334.10428	1084.0492	-1369.3704	241.81064	722.95953	-1090.2003	233.9894	737.7336	-1349.0549	409.3872	786.3103	-1175.9719	408.9108	784.0146	-1250.3558	173.07492	501.47104	-937.71564	113.7023	376.43607	-910.74091	219.72388	196.73251	-929.93878	297.31262	64.412849	-975.25153	320.8624	51.948662	-1036.2137	159.82355	38.738728	-948.82477	262.34512	629.83777	-1434.7589	121.57327	367.65204	-1507.2063	157.63718	288.58926	-1507.7722	291.44077	71.359795	-1434.5718	318.33243	51.949768	-1363.8595	161.97778	40.542385	-1462.8353	
1334	6.665	316.38034	1161.3654	-1218.0638	172.14441	1085.3771	-1209.3058	334.16678	1080.6576	-1369.4227	242.44994	719.57147	-1090.3699	234.6442	734.3699	-1349.1216	410.0101	782.9623	-1176.2795	409.511	780.8999	-1250.2344	172.75784	500.07809	-937.07562	112.65436	375.67294	-909.65857	219.19467	196.35252	-929.50238	297.26617	64.359917	-975.32654	320.78137	51.906803	-1036.2931	159.77264	38.728279	-948.86401	262.90204	627.40527	-1434.8602	120.32794	366.56906	-1508.1168	156.57207	287.67996	-1508.4513	291.35025	71.275291	-1434.5216	318.26486	51.894745	-1363.8657	162.0047	40.441082	-1462.8163	
1335	6.67	316.37247	1158.0265	-1218.021	172.08786	1082.0131	-1209.3174	334.17563	1077.3362	-1369.4546	242.91136	716.24963	-1090.3113	235.2375	731.1038	-1349.1538	410.5384	779.6866	-1176.3595	409.8472	777.7793	-1249.8341	172.48294	498.75049	-936.39288	111.58877	374.80829	-908.49695	218.65903	195.98071	-929.08337	297.616	64.52607	-975.24921	320.85678	52.174561	-1036.5626	159.71341	38.719231	-948.83679	263.31573	625.07648	-1434.9857	119.05968	365.50275	-1508.9506	155.49585	286.79303	-1509.1265	291.22812	71.219971	-1434.4828	318.17267	51.973492	-1363.7833	161.97513	40.462528	-1462.8627	
1336	6.675	316.3848	1154.7395	-1217.9984	172.18553	1078.4851	-1209.2013	334.11639	1074.0404	-1369.3845	243.43008	712.85364	-1090.3372	235.7711	727.9261	-1349.198	411.0505	776.4836	-1176.1887	410.2168	774.3907	-1249.6263	172.16476	497.16544	-935.81738	110.53745	373.90482	-907.49152	218.12625	195.47127	-928.6944	297.11377	64.317543	-975.35925	320.63074	51.980869	-1036.4126	159.69719	38.765926	-948.79486	263.7168	622.85956	-1435.0511	117.75573	364.52423	-1509.7317	154.45705	286.06128	-1509.8126	291.13104	71.231232	-1434.4304	318.05142	52.061359	-1363.5967	161.97591	40.489986	-1462.8467	
1337	6.68	316.44025	1151.4086	-1217.9655	171.22842	1075.6931	-1208.7532	334.14084	1070.7562	-1369.4552	243.91403	709.43762	-1090.3745	236.3461	724.74	-1349.3116	411.5089	773.2264	-1175.8213	411.1041	770.9696	-1250.0515	171.86546	495.67316	-935.21234	109.56088	372.8989	-906.52722	217.62128	194.99649	-928.2868	297.03302	64.248878	-975.39526	320.51404	52.04356	-1036.4415	159.67188	38.833889	-948.73956	264.12949	620.65393	-1435.1632	116.56591	363.59518	-1510.6646	153.35678	285.21729	-1510.4044	291.0004	71.3013	-1434.3785	317.90308	52.176632	-1363.4071	161.97368	40.574963	-1462.8556	
